<mxfile host="app.diagrams.net" modified="2023-04-14T07:26:44.696Z" agent="Mozilla/5.0 (Windows NT 10.0; Win64; x64; rv:109.0) Gecko/20100101 Firefox/112.0" etag="v0zTYiSJB7Q1Oh_2iU1_" version="21.1.7" type="device">
  <diagram name="Seite-1" id="o6GscpCj49spNP2j3nmX">
    <mxGraphModel dx="1434" dy="754" grid="1" gridSize="10" guides="1" tooltips="1" connect="1" arrows="1" fold="1" page="1" pageScale="1" pageWidth="827" pageHeight="1169" math="0" shadow="0">
      <root>
        <mxCell id="0" />
        <mxCell id="1" parent="0" />
        <mxCell id="d3beW7mtZlNtkhdjp8X--1" value="" style="rounded=0;whiteSpace=wrap;html=1;fontColor=default;labelBackgroundColor=none;" parent="1" vertex="1">
          <mxGeometry x="90" y="80" width="480" height="220" as="geometry" />
        </mxCell>
        <mxCell id="d3beW7mtZlNtkhdjp8X--6" value="" style="rounded=0;whiteSpace=wrap;html=1;labelBackgroundColor=none;" parent="1" vertex="1">
          <mxGeometry x="120" y="102" width="220" height="178" as="geometry" />
        </mxCell>
        <mxCell id="d3beW7mtZlNtkhdjp8X--2" value="Host Maschine" style="text;html=1;strokeColor=none;fillColor=none;align=center;verticalAlign=middle;whiteSpace=wrap;rounded=0;fontStyle=1" parent="1" vertex="1">
          <mxGeometry x="93" y="74" width="90" height="30" as="geometry" />
        </mxCell>
        <mxCell id="d3beW7mtZlNtkhdjp8X--4" value="Virtuelle Maschine" style="text;html=1;strokeColor=none;fillColor=none;align=center;verticalAlign=middle;whiteSpace=wrap;rounded=0;fontStyle=1" parent="1" vertex="1">
          <mxGeometry x="120" y="102" width="110" height="30" as="geometry" />
        </mxCell>
        <mxCell id="d3beW7mtZlNtkhdjp8X--5" value="Endpoint" style="text;html=1;strokeColor=none;fillColor=none;align=center;verticalAlign=middle;whiteSpace=wrap;rounded=0;fontStyle=1" parent="1" vertex="1">
          <mxGeometry x="223.57" y="154" width="110" height="30" as="geometry" />
        </mxCell>
        <mxCell id="d3beW7mtZlNtkhdjp8X--8" value="" style="verticalLabelPosition=bottom;sketch=0;html=1;fillColor=#282828;strokeColor=none;verticalAlign=top;pointerEvents=1;align=center;shape=mxgraph.cisco_safe.security_icons.icon36;" parent="1" vertex="1">
          <mxGeometry x="150" y="160" width="50" height="49" as="geometry" />
        </mxCell>
        <mxCell id="d3beW7mtZlNtkhdjp8X--9" value="Angreifer" style="text;html=1;strokeColor=none;fillColor=none;align=center;verticalAlign=middle;whiteSpace=wrap;rounded=0;fontStyle=1" parent="1" vertex="1">
          <mxGeometry x="120" y="200" width="110" height="30" as="geometry" />
        </mxCell>
        <mxCell id="d3beW7mtZlNtkhdjp8X--11" value="" style="endArrow=classic;html=1;rounded=0;entryX=0.115;entryY=0.4;entryDx=0;entryDy=0;exitX=0.88;exitY=0.347;exitDx=0;exitDy=0;exitPerimeter=0;entryPerimeter=0;strokeColor=#FF003C;strokeWidth=3;" parent="1" source="d3beW7mtZlNtkhdjp8X--8" target="d3beW7mtZlNtkhdjp8X--17" edge="1">
          <mxGeometry width="50" height="50" relative="1" as="geometry">
            <mxPoint x="330" y="300" as="sourcePoint" />
            <mxPoint x="380" y="250" as="targetPoint" />
          </mxGeometry>
        </mxCell>
        <mxCell id="d3beW7mtZlNtkhdjp8X--17" value="" style="points=[[0.13,0.02,0],[0.5,0,0],[0.87,0.02,0],[0.885,0.4,0],[0.985,0.985,0],[0.5,1,0],[0.015,0.985,0],[0.115,0.4,0]];verticalLabelPosition=bottom;sketch=0;html=1;verticalAlign=top;aspect=fixed;align=center;pointerEvents=1;shape=mxgraph.cisco19.laptop;fillColor=#005073;strokeColor=none;" parent="1" vertex="1">
          <mxGeometry x="250" y="120" width="57.14" height="40" as="geometry" />
        </mxCell>
        <mxCell id="d3beW7mtZlNtkhdjp8X--21" value="" style="shape=flexArrow;endArrow=classic;html=1;rounded=0;fillColor=default;entryX=-0.015;entryY=0.298;entryDx=0;entryDy=0;exitX=0.945;exitY=0.675;exitDx=0;exitDy=0;exitPerimeter=0;entryPerimeter=0;" parent="1" source="d3beW7mtZlNtkhdjp8X--17" target="d3beW7mtZlNtkhdjp8X--14" edge="1">
          <mxGeometry width="50" height="50" relative="1" as="geometry">
            <mxPoint x="330" y="149" as="sourcePoint" />
            <mxPoint x="554.5002037686183" y="149.160817989948" as="targetPoint" />
          </mxGeometry>
        </mxCell>
        <mxCell id="Nt8PIxYtaMzxn8n65fRf-1" value="" style="group" vertex="1" connectable="0" parent="1">
          <mxGeometry x="420" y="91.5" width="130" height="178.5" as="geometry" />
        </mxCell>
        <mxCell id="d3beW7mtZlNtkhdjp8X--3" value="" style="verticalLabelPosition=bottom;html=1;verticalAlign=top;align=center;strokeColor=none;fillColor=#00BEF2;shape=mxgraph.azure.computer;pointerEvents=1;" parent="Nt8PIxYtaMzxn8n65fRf-1" vertex="1">
          <mxGeometry x="79" y="78.98230088495575" width="50" height="71.08407079646017" as="geometry" />
        </mxCell>
        <mxCell id="d3beW7mtZlNtkhdjp8X--14" value="" style="rounded=0;whiteSpace=wrap;html=1;labelBackgroundColor=none;dashed=1;" parent="Nt8PIxYtaMzxn8n65fRf-1" vertex="1">
          <mxGeometry y="4.738938053097344" width="130" height="173.76106194690266" as="geometry" />
        </mxCell>
        <mxCell id="d3beW7mtZlNtkhdjp8X--15" value="Container" style="text;html=1;strokeColor=none;fillColor=none;align=center;verticalAlign=middle;whiteSpace=wrap;rounded=0;fontStyle=1" parent="Nt8PIxYtaMzxn8n65fRf-1" vertex="1">
          <mxGeometry width="60" height="47.38938053097345" as="geometry" />
        </mxCell>
        <mxCell id="d3beW7mtZlNtkhdjp8X--18" value="" style="aspect=fixed;perimeter=ellipsePerimeter;html=1;align=center;shadow=0;dashed=0;spacingTop=3;image;image=img/lib/active_directory/generic_server.svg;" parent="Nt8PIxYtaMzxn8n65fRf-1" vertex="1">
          <mxGeometry x="37.75" y="42.96" width="54.5" height="97.32" as="geometry" />
        </mxCell>
        <mxCell id="d3beW7mtZlNtkhdjp8X--19" value="Grafana" style="text;html=1;strokeColor=none;fillColor=none;align=center;verticalAlign=middle;whiteSpace=wrap;rounded=0;fontStyle=1" parent="Nt8PIxYtaMzxn8n65fRf-1" vertex="1">
          <mxGeometry x="10" y="119.11061946902655" width="110" height="47.38938053097345" as="geometry" />
        </mxCell>
        <mxCell id="Nt8PIxYtaMzxn8n65fRf-3" value="Endpoint" style="text;html=1;strokeColor=none;fillColor=none;align=center;verticalAlign=middle;whiteSpace=wrap;rounded=0;fontStyle=1" vertex="1" parent="1">
          <mxGeometry x="223.57" y="234" width="110" height="30" as="geometry" />
        </mxCell>
        <mxCell id="Nt8PIxYtaMzxn8n65fRf-4" value="" style="endArrow=classic;html=1;rounded=0;entryX=-0.012;entryY=0.429;entryDx=0;entryDy=0;exitX=0.8;exitY=0.633;exitDx=0;exitDy=0;exitPerimeter=0;entryPerimeter=0;strokeColor=#FF003C;strokeWidth=3;" edge="1" parent="1" source="d3beW7mtZlNtkhdjp8X--8">
          <mxGeometry width="50" height="50" relative="1" as="geometry">
            <mxPoint x="164" y="227" as="sourcePoint" />
            <mxPoint x="249.2628400000001" y="235.447" as="targetPoint" />
          </mxGeometry>
        </mxCell>
        <mxCell id="Nt8PIxYtaMzxn8n65fRf-5" value="" style="points=[[0.13,0.02,0],[0.5,0,0],[0.87,0.02,0],[0.885,0.4,0],[0.985,0.985,0],[0.5,1,0],[0.015,0.985,0],[0.115,0.4,0]];verticalLabelPosition=bottom;sketch=0;html=1;verticalAlign=top;aspect=fixed;align=center;pointerEvents=1;shape=mxgraph.cisco19.laptop;fillColor=#005073;strokeColor=none;" vertex="1" parent="1">
          <mxGeometry x="250" y="200" width="57.14" height="40" as="geometry" />
        </mxCell>
        <mxCell id="Nt8PIxYtaMzxn8n65fRf-6" value="" style="shape=flexArrow;endArrow=classic;html=1;rounded=0;fillColor=default;entryX=-0.015;entryY=0.298;entryDx=0;entryDy=0;exitX=0.945;exitY=0.675;exitDx=0;exitDy=0;exitPerimeter=0;entryPerimeter=0;" edge="1" parent="1">
          <mxGeometry width="50" height="50" relative="1" as="geometry">
            <mxPoint x="306" y="227" as="sourcePoint" />
            <mxPoint x="420" y="228" as="targetPoint" />
            <Array as="points">
              <mxPoint x="352" y="228" />
            </Array>
          </mxGeometry>
        </mxCell>
      </root>
    </mxGraphModel>
  </diagram>
</mxfile>
